<svg width="36" height="36" viewBox="0 0 36 36" fill="none" xmlns="http://www.w3.org/2000/svg"><mask id="a" maskUnits="userSpaceOnUse" x="0" y="0" width="36" height="36"><circle cx="18" cy="18" r="18" fill="#C4C4C4"/></mask><g mask="url(#a)"><path d="M111.723 59.905c1.12 7.154 2.465 15.298.896 22.092-1.972 8.594-6.141 21.193-11.116 28.122-9.682 13.453-24.788 23.262-45.721 26.591-21.471 3.375-38.55-1.17-53.341-14.803-10.803-9.943-18.871-23.082-21.292-38.74-1.165-7.469-1.659-15.568-.448-22.632C-16.7 45.462-8.99 33.314 1.813 23.28c9.279-8.55 20.709-15.928 34.425-18.088 17.661-2.79 33.35 2.475 47.11 11.654 15.241 10.213 25.327 23.622 28.375 43.06z" fill="#E06F00"/><path d="M109.93 60.22c1.076 6.974 2.42 14.893.896 21.507-1.927 8.37-5.961 20.653-10.802 27.357-9.414 13.093-24.116 22.632-44.466 25.872-20.889 3.284-37.474-1.125-51.862-14.399-10.579-9.718-18.378-22.497-20.799-37.705-1.12-7.244-1.613-15.163-.448-22.002 2.51-14.668 10.04-26.502 20.574-36.22 9.01-8.324 20.127-15.478 33.484-17.593 17.213-2.7 32.453 2.43 45.856 11.338C97.155 28.23 106.97 41.278 109.93 60.22z" fill="#F4810F"/><path d="M103.565 61.975c.986 6.21 2.151 13.273.762 19.167-1.748 7.47-5.38 18.403-9.727 24.432-8.472 11.654-20.26 21.103-39.984 23.082-18.916 1.89-33.663-.944-46.572-12.778-9.458-8.639-16.45-20.022-18.602-33.61-1.031-6.48-1.435-13.499-.359-19.618 2.286-13.093 9.01-23.622 18.512-32.306 8.114-7.424 18.11-13.813 30.078-15.703 15.464-2.43 27.612.09 39.625 8.054 13.268 8.774 23.622 22.407 26.267 39.28z" fill="#E06F00"/><path d="M107.155 61.23c1.038 6.612 2.275 14.12.841 20.384-1.88 7.905-5.737 19.589-10.336 25.953-9.001 12.43-21.562 22.473-42.481 24.561-20.079 2.038-35.756-1.044-49.455-13.573-10.039-9.198-17.506-21.28-19.732-35.748-1.088-6.86-1.533-14.368-.396-20.881C-11.98 48.005-4.809 36.769 5.23 27.57c8.605-7.905 19.237-14.717 31.947-16.755 16.419-2.586 29.327.1 42.086 8.551 14.094 9.397 25.073 23.915 27.892 41.863z" fill="#B51212"/><path d="M104.981 61.775c.991 6.347 2.179 13.537.793 19.587-1.783 7.587-5.498 18.794-9.955 24.943-8.667 11.901-20.751 21.571-40.909 23.604-19.364 1.934-34.47-.992-47.693-13.042-9.658-8.827-16.839-20.43-19.018-34.315-1.04-6.595-1.486-13.786-.396-20.034C-9.87 49.18-2.936 38.368 6.722 29.542c8.32-7.587 18.522-14.132 30.805-16.066 15.799-2.48 28.28.099 40.562 8.231 13.62 8.877 24.218 22.81 26.892 40.068z" fill="#FFE9B0"/><path d="M34.772 26.889c-.4 2.489-3.422 3.911-2.8 4.178.622.222 3.866-1.467 2.8-4.178z" fill="#41B619"/></g></svg>
