<svg width="36" height="36" viewBox="0 0 36 36" fill="none" xmlns="http://www.w3.org/2000/svg"><mask id="a" maskUnits="userSpaceOnUse" x="0" y="0" width="36" height="36"><circle cx="18" cy="18" r="18" fill="#C4C4C4"/></mask><g mask="url(#a)"><path d="M148.886 67.792c1.471 9.39 3.236 20.079 1.177 28.996-2.589 11.28-8.06 27.815-14.591 36.91-12.707 17.657-32.534 30.531-60.008 34.901-28.181 4.429-50.596-1.535-70.01-19.429-14.18-13.051-24.769-30.295-27.946-50.846-1.53-9.803-2.177-20.433-.588-29.705 3.412-19.783 13.53-35.728 27.71-48.898C16.808 8.501 31.81-1.184 49.813-4.018c23.18-3.661 43.77 3.248 61.832 15.296 20.003 13.405 33.24 31.004 37.241 56.515z" fill="#E06F00"/><path d="M146.533 68.206c1.412 9.153 3.177 19.547 1.176 28.228-2.529 10.984-7.824 27.106-14.178 35.905-12.355 17.185-31.652 29.705-58.362 33.957-27.415 4.311-49.183-1.477-68.068-18.898-13.885-12.756-24.121-29.527-27.298-49.488-1.471-9.508-2.118-19.901-.589-28.878C-17.49 49.78-7.607 34.25 6.218 21.493 18.043 10.568 32.634 1.178 50.166-1.597 72.757-5.141 92.76 1.592 110.35 13.284c19.415 12.934 32.299 30.06 36.182 54.922z" fill="#F4810F"/><path d="M138.179 70.509c1.294 8.15 2.824 17.42 1 25.157-2.295 9.803-7.06 24.154-12.767 32.067-11.119 15.295-26.592 27.697-52.478 30.295-24.827 2.48-44.183-1.24-61.127-16.771-12.413-11.339-21.591-26.28-24.415-44.115-1.353-8.503-1.883-17.716-.47-25.748 3-17.184 11.825-31.003 24.297-42.4 10.649-9.745 23.768-18.13 39.476-20.611 20.298-3.189 36.241.118 52.008 10.57 17.414 11.517 31.005 29.41 34.476 51.556z" fill="#E06F00"/><path d="M135.414 70.981c1.235 7.854 2.706 16.772 1 24.213-2.236 9.389-6.825 23.267-12.296 30.826-10.708 14.764-25.651 26.693-50.537 29.173-23.886 2.422-42.536-1.24-58.832-16.122-11.943-10.925-20.827-25.275-23.474-42.46-1.294-8.15-1.824-17.067-.47-24.803C-6.314 55.272 2.217 41.926 14.16 31c10.236-9.39 22.885-17.48 38.005-19.902 19.532-3.07 34.888.118 50.066 10.158 16.767 11.161 29.828 28.405 33.182 49.724z" fill="#B51212"/><path d="M132.648 71.454c1.177 7.559 2.589 16.122.942 23.326-2.118 9.036-6.531 22.382-11.826 29.705-10.295 14.173-24.65 25.689-48.595 28.11-23.003 2.303-40.947-1.181-56.655-15.531C5.04 126.552-3.49 112.733-6.078 96.198c-1.235-7.855-1.765-16.418-.47-23.858 2.765-15.886 11.001-28.76 22.473-39.272 9.884-9.035 22.004-16.83 36.594-19.134 18.768-2.952 33.593.118 48.184 9.803 16.178 10.571 28.768 27.166 31.945 47.717z" fill="#FFE9B0"/></g></svg>
